<?xml version="1.0" encoding="utf-8"?>
<!-- Generator: Adobe Illustrator 22.1.0, SVG Export Plug-In . SVG Version: 6.00 Build 0)  -->
<svg version="1.1" id="Layer_1" xmlns="http://www.w3.org/2000/svg" xmlns:xlink="http://www.w3.org/1999/xlink" x="0px" y="0px"
	 viewBox="0 0 468 304" style="enable-background:new 0 0 468 304;" xml:space="preserve">
<g>
	<path d="M461,268.1c0,1.7,0,3.3,0,5c-0.8,1.6-0.4,4.3-3.5,3.9c-0.2,0-0.7,0.9-0.9,1.4c-1,2.1-2.2,4.1-3.7,5.9
		c-1,1.2-2.4,1.9-1.6,4.3c0.5,1.5-2.2,2.5-3.8,3.3c-1.1,0.6-2.4,2.1-3.6,0.9c-1.3-1.3-2.3-1-3.6-0.6c-1.8,0.4-3.5,0.7-5.3,0.8
		c-1.7,0.1-3.7-0.5-4.5,1.9c-0.2,0.5-0.9,0.4-1.4,0.4c-1.5,0-3,0-4.5,0c-0.6,0-1.4,0.1-1.6-0.6c-0.6-2-2.2-1.7-3.6-1.8
		c-1.8,0-3.6,0-5.4,0c-1.4,0-2.9-0.2-3.4,1.7c-0.1,0.5-0.7,0.6-1.1,0.6c-1.8,0-3.6,0-5.4,0c-0.5,0-1.1-0.2-1.3-0.7
		c-0.5-1.6-1.8-1.6-3.1-1.6c-1.7,0-3.5,0-5.2,0c-1.6,0-3.6-0.5-4.2,1.9c-0.1,0.5-0.9,0.5-1.4,0.5c-1.5,0-3,0-4.5,0
		c-0.6,0-1.4,0-1.5-0.7c-0.5-1.8-1.8-1.7-3.2-1.7c-1.8,0-3.6,0-5.4,0c-1.6,0-3.2-0.3-3.9,1.8c-0.2,0.6-0.8,0.6-1.4,0.6
		c-1.7,0-3.3,0-5,0c-0.6,0-1.3-0.1-1.5-0.8c-0.4-1.6-1.6-1.5-2.9-1.5c-1.1,0-2.3-0.1-3.4,0c-2.3,0.3-5.1-1.2-6.5,2
		c-0.1,0.2-0.8,0.3-1.3,0.3c-1.5,0-3,0-4.5,0c-0.6,0-1.4,0.1-1.6-0.6c-0.6-1.9-2.2-1.7-3.7-1.7c-1.8,0-3.6,0-5.4,0
		c-1.4,0-2.9-0.2-3.4,1.7c-0.1,0.6-0.8,0.6-1.3,0.6c-1.7,0-3.3,0-5,0c-0.5,0-1.2-0.1-1.3-0.7c-0.4-1.8-1.9-1.7-3.2-1.7
		c-1.7,0-3.5,0-5.2,0c-1.6,0-3.4-0.4-4.1,1.8c-0.1,0.5-0.7,0.5-1.2,0.5c-1.7,0-3.5,0-5.2,0c-0.5,0-1.2-0.1-1.3-0.7
		c-0.5-1.8-1.9-1.7-3.2-1.7c-1.8,0-3.6,0-5.4,0c-1.5,0-3.3-0.3-3.9,1.8c-0.1,0.2-0.6,0.5-0.9,0.5c-1.9,0.1-3.8,0-5.6,0
		c-0.5,0-1-0.2-1.1-0.6c-0.6-1.8-2-1.7-3.5-1.7c-1.8,0-3.6,0-5.4,0c-1.5,0-3.1-0.3-3.6,1.8c-0.1,0.6-0.8,0.6-1.4,0.6
		c-1.6,0-3.2,0-4.7,0c-0.6,0-1.3,0-1.5-0.7c-0.4-1.7-1.7-1.6-3-1.6c-1.7,0-3.5,0-5.2,0c-1.7,0-3.5-0.4-4.3,1.9
		c-0.2,0.5-0.9,0.5-1.4,0.5c-1.6,0-3.2,0-4.7,0c-0.5,0-1.2,0-1.4-0.5c-0.7-2.2-2.5-1.8-4.1-1.8c-1.9,0-3.8,0-5.6,0
		c-1.2,0-2.1,0.1-2.7,1.4c-0.6,1.3-7.4,1.4-8.2,0.2c-0.1-0.2-0.2-0.4-0.2-0.6c0.1-1.3-0.8-1.6-1.8-1.9c-2.5-0.6-4.8-1.7-7-3.1
		c-1.2-0.8-2-1.9-3.9-0.7c-1.2,0.8-2.2-1.2-3-2.2c-1.1-1.3-3.4-2.8-2.4-4.4c1-1.7,0.5-2.7-0.1-4.1c-0.9-2.2-1.5-4.4-1.8-6.7
		c-0.1-1.1-0.4-1.9-1.5-2.5c-1.6-0.8-0.8-8,0.8-8.8c0.1,0,0.2-0.1,0.2-0.1c2,0.5,2.3-1.1,2.9-2.4c1-2.1,2.4-4,3.9-5.8
		c0.9-1,1.7-1.6,1.1-3.4c-0.6-1.7,1.8-2.3,3-3.1c1.3-0.8,2.9-2.6,4.3-1.4c1.3,1.1,2.1,1,3.4,0.7c2.3-0.6,4.6-0.7,6.9-0.7
		c1.3,0,2.6,0,3-1.7c0.2-0.7,0.8-0.9,1.4-0.9c1.7,0,3.5,0,5.2,0c0.5,0,1.2,0.2,1.3,0.7c0.3,2.1,1.8,1.8,3.3,1.8c2,0,3.9,0,5.9,0
		c1.4,0,2.9,0.2,3.3-1.9c0.1-0.7,0.9-0.7,1.5-0.8c1.6,0,3.2,0,4.7,0c0.6,0,1.4,0,1.5,0.7c0.5,2,2,1.9,3.5,1.9c2,0,3.9,0,5.9,0
		c1.4,0,2.7,0.1,3.1-1.8c0.1-0.8,1-0.8,1.7-0.8c1.4,0,2.9,0,4.3,0c0.9,0,1.7,0.2,1.8,1.2c0.2,1.1,1,1.4,2,1.3c1.2-0.1,1.3-1.1,1.3-2
		c0-1.7-0.1-3.3,0-5c0.1-2-0.7-2.6-2.6-2.6c-6.6,0.1-13.2,0-19.8,0c-3.2,0-3.2,0-3.2-3.1c0-3.2-0.1-3.2-3.3-3.2
		c-7.3,0-14.6,0-21.9,0c-1.3,0-2.3-0.2-3-1.5c-1.1-2.2-1.1-5.8,0.7-7.4c1.4-1.3,1.4-2.7,1.4-4.2c0-17.4,0.1-34.9-0.1-52.3
		c0-3.3,1-5.4,3.8-6.9c1.1-0.6,2.2-1.1,2.7-2.5c3.3-8.5,6.7-16.9,10.1-25.3c0.6-1.5,0.7-2.8,0.2-4.4c-0.6-2.2-1.4-4.4-1.5-6.6
		c0-1.5-0.4-2.6-1.1-3.7c-3.3-5.2-6.6-10.4-9.8-15.7c-1.3-2-2.9-3.9-3.6-6.2c-0.6-1.8-1.7-2.8-3.6-3.3c-9.5-2.5-19-5.2-28.5-7.8
		c-1.8-0.5-3.3-0.5-5,0.2c-9.7,3.7-19.5,3.6-29.4,0.2c-9.4-3.2-17.3-8.9-24.6-15.5c-0.9-0.8-1.8-1.5-3-1.9
		c-16.9-4.6-33.8-9.2-50.6-13.9c-1.9-0.5-2.7,0-3.4,1.8c-9,23.6-18.2,47.1-27.7,70.5c-0.4,1.1-0.6,2.1-0.4,3.3
		c1,5.3,1.4,10.6,1,15.9c-0.7,9.1-4.1,16.6-13.2,20.3c-0.3,0.1-0.6,0.2-0.4,0.8c4.7,1.6,9.5,2.9,14.5,3.8
		c12.1,2.4,24.2,5.5,36.7,5.6c1.3,0,2.5-0.1,3.6-0.9c2.5-1.7,5.1-3.4,7.7-5.1c0.8-0.6,1.9-1.1,2.7-0.4c1,0.7,0.2,1.7-0.2,2.4
		c-3.2,8-7.3,15.5-12.3,22.5c-5.8,8.2-12.6,15.3-21.7,19.9c-19.1,9.7-40.7,0.3-45.9-19.9c-1.1-4.4-1.3-8.9-1.2-13.4
		c0-1.4-0.4-2.3-1.5-3.2c-3.8-2.9-6.8-6.8-11.4-8.7c-0.7-0.3-1.2-1.1-1.8-1.7c0-1.4,0-2.7,0-4.1c0.6-0.8,1.2-1.8,2.2-2.2
		c1.6-0.6,2.2-1.8,2.8-3.3c5-12.1,10-24.2,14.9-36.3c0.7-1.6,2.2-3.3,0-5c-0.2-0.1-0.1-0.7,0-1.1c0.8-2.9,1.5-5.8,2.5-8.6
		c8.1-24.7,16.3-49.4,24.2-74.1c1.5-4.8,3.6-8.5,8.3-10.3c4.8-1.8,7.8-4.9,9-9.9c0.5-1.9,2.2-3,4.3-3.1c2.1-0.1,3.7,0.9,4.5,2.7
		c0.6,1.3,1.6,1.9,2.9,2.3c1.2,0.3,2.4,0.8,3.7,1.2c4.9,1.6,9.8,3.3,14.8,4.6c4.8,1.3,9.3,4.3,14.8,3.2c1.8-0.4,4,0.6,5.9,1.2
		c16.7,5.1,33.4,10.4,50.2,15.5c6.1,1.9,12,4.5,18.4,5.3c11.1,1.4,22.3,2.3,33.4,3.4c6.7,0.6,13.3,1.2,19.4,4.3
		c8.9,4.5,17.8,9,26.8,13.5c1.5,0.7,2.5,1.8,3.2,3.3c2.8,6.6,5.8,13.2,8.7,19.8c4.4,10.1,8.8,20.1,13.2,30.2c0.5,1.2,1,2.7,2.8,2.4
		c2.8-0.5,4,1,5.1,3.3c4.9,9.9,10,19.7,15,29.6c0.5,1,0.9,2.3,2.4,2.4c3,0.2,6,0.6,9,0.8c1.1,0.1,1.4-0.5,1.9-1.4
		c2.3-4.1,2.3-9,4.8-13.1c0.9-1.4,1.5-1.8,2.9-1.6c5.1,0.6,10.3,1.2,15.4,1.8c2.9,0.3,4.8,2.3,4.6,5.1c-0.2,3.1-0.7,6.3,0.6,9.3
		c0.2,0.4,0.1,0.9,0,1.3c-0.2,1.1-0.1,2,1.2,2.2c1.4,0.3,1.9-0.6,2-1.8c0.2-1.5,0.9-2.3,2.6-1.8c1.1,0.3,1.8-0.3,1.9-1.4
		c0.2-2,1.5-1.9,3-1.6c3.3,0.6,6.7,1.2,10,1.8c8.4,1.5,16.9,3,25.3,4.5c1.5,0.3,2.7,0.7,2.1,2.6c-0.2,0.7,0,1.6,0.7,1.7
		c2.4,0.4,2.1,2,1.7,3.5c-0.5,1.8,0.3,2.6,1.9,3.1c1.7,0.6,3.3,1.5,5,2.1c2,0.8,2.9,2.3,3.3,4.4c1.4,6.9,2,14,4.9,20.6
		c3,6.7,3.8,14,3.4,21.4c0,0.5-0.2,1.2,0.3,1.5c2.6,1.9,1.8,4.6,1.8,7.2c0,2.3-1.2,2.9-3.3,2.9c-9.2-0.1-18.3,0-27.5,0
		c-2.7,0-5.4,0-8.1,0c-1.5,0-2.3,0.5-2.2,2.1c0,0.5,0,1.1,0,1.6c0.2,1.9-0.6,2.7-2.6,2.7c-2.9-0.1-5.9,0-8.8,0
		c-1.5,0-2.2,0.6-2.2,2.2c0.1,1.8,0,3.6,0,5.4c0,1.4,0.6,2.1,2,2c2,0,3.9,0,5.9,0c1.4,0,2.9,0.2,3.3-1.8c0.1-0.6,0.7-0.7,1.3-0.7
		c1.7,0,3.5,0,5.2,0c0.5,0,1,0.1,1.1,0.6c0.4,2.4,2.3,2,3.9,2c1.8,0,3.6,0,5.4,0c1.4,0,2.8,0.1,3.2-1.7c0.2-0.7,0.8-0.9,1.4-0.9
		c1.7,0,3.3,0,5,0c0.6,0,1.4,0.1,1.5,0.8c0.3,2.1,1.9,1.8,3.3,1.8c1.9,0,3.8,0,5.6,0c1.5,0,3.1,0.3,3.5-1.9c0.1-0.6,0.8-0.7,1.3-0.7
		c1.8,0,3.6,0,5.4,0.2c0.6,0,1.5,0.1,1.4,0.8c0,2.2,1.6,2.2,3,2.6c2.5,0.8,4.7,1.9,6.8,3.4c0.7,0.5,1.4,1.1,2.2,0.4
		c1-0.9,1.8-0.3,2.5,0.4c0.7,0.8,1.5,1.5,2.1,2.4c1,1.4,3,2.7,0.8,4.7c-0.5,0.4,0,1.2,0.3,1.7c1.3,2.6,2.1,5.3,2.3,8.2
		C458.8,267.3,459.4,268.1,461,268.1z M135.6,34.7c0-0.1,0-0.2,0-0.3c-5.2-1.6-10.4-3.1-15.5-4.8c-2.1-0.7-4.7-1.4-5.9-3
		c-1.1-1.6-2.4-2-3.9-2.5c-8.5-2.8-17-5.4-25.5-8.2c-0.7-0.2-1.4-0.5-2.2-0.6c-1.4-0.2-1.5,0.9-1.9,1.8c-0.3,0.7-0.6,1.6,0.5,1.9
		c1.9,0.6,1.9,2.1,1.9,3.6c0,1.5,0.1,3,0,4.5c-0.1,1.9,0.6,2.8,2.6,2.7c1-0.1,2.1,0,3.1,0.1C104.4,31.6,120,33.1,135.6,34.7z
		 M237.9,91c0.1,0.6,0,0.8,0.1,0.9c3.9,6.2,7.8,12.5,11.7,18.7c0.3,0.4,0.6,1.1,1.1,1c1.9-0.2,2.6,1.1,3.2,2.3
		c1.4,2.9,3.6,3.6,6.6,3.3c1.6-0.2,2.2-0.5,1.5-2.1c-2.5-6-5-12.1-7.5-18.1c-0.4-0.9-0.8-1.7-1.8-1.9C248,93.8,243.1,92.5,237.9,91z
		 M369.5,242.4c0.3-1,1-1.4,2-1.4c1.5,0,2-0.8,1.9-2.2c0-1,0-1.9,0-2.9c0-1.3-0.7-1.8-2-1.9c-1.3,0-2,0.5-2,1.9
		C369.5,238,369.5,240.2,369.5,242.4z"/>
</g>
</svg>
